<svg width="20" height="19" viewBox="0 0 20 19" fill="none" xmlns="http://www.w3.org/2000/svg">
<path d="M16.4675 13.6973C14.1147 17.0444 9.26608 17.7073 5.66272 15.1745C2.05935 12.6416 1.04128 7.85497 3.39404 4.50782C3.57543 4.24976 3.77316 4.00319 3.99007 3.78144C4.73599 6.47169 6.45333 8.92623 8.86374 10.6205C11.2742 12.3148 14.1652 13.0996 16.9491 12.8905C16.8139 13.1697 16.6489 13.4392 16.4675 13.6973ZM18.1016 14.846C19.0726 13.4646 19.5764 11.8796 19.6661 10.2757C16.6574 11.5514 12.954 11.2276 9.93075 9.10256C6.90752 6.97749 5.34884 3.60253 5.53045 0.339539C4.05168 0.967065 2.73084 1.97777 1.75986 3.35913C-1.18508 7.54876 0.0853751 13.5221 4.59571 16.6925C9.10604 19.8628 15.1567 19.0356 18.1016 14.846Z" fill="#E2E2E2"/>
</svg>
